<svg id="Capa_1" enable-background="new 0 0 512 512" height="512" viewBox="0 0 512 512" width="512" xmlns="http://www.w3.org/2000/svg"><g><path d="m512 256c0 105.76-64.14 196.55-155.65 235.58-5.79 2.47-11.7-17.501-17.7-15.451-4.14 1.41-8.33 24.951-12.57 26.151-14.54 4.13-29.61 7.01-45.09 8.51-8.22.8-16.191-81.042-24.621-81.042-39.7 0-77.28-9.04-110.81-25.17-7.72-3.71-15.23-7.8-22.49-12.25-26.66-16.27-50.469 44.952-69.529 20.352l-.01-.01c-33.55-43.3-53.53-97.65-53.53-156.67 0-88.01 44.42-165.65 112.06-211.73 13.12-8.93 27.11-16.68 41.83-23.09 19.82-8.63 40.95-14.83 63.01-18.21 12.74-1.96 25.8-2.97 39.1-2.97 141.38 0 256 114.62 256 256z" fill="#75cef9"/><g><path d="m280.99 286.56-42.862 168.951 42.862 31.319v23.96c-8.22.8-16.56 1.21-24.99 1.21-39.7 0-77.28-9.04-110.81-25.17-7.72-3.71 29.699-88.722 22.439-93.171-26.66-16.27-114.099-92.379-114.099-92.379v-14.72c0-26.91 13.45-50.67 34-64.92 15.31-10.62 24.53-27.98 24.53-46.61v-160.76c0-7.88 6.39-14.27 14.27-14.27h81.85c3.28 0 6.31 1.11 8.72 2.97 3.38 2.61 5.56 6.7 5.56 11.3v160.76c0 18.63 9.22 35.99 24.52 46.61 20.55 14.25 34.01 38.01 34.01 64.92z" fill="#78c2a4"/><path d="m161.5 0c-4.2 0-7.61 6.39-7.61 14.27v160.76c0 18.63-4.91 35.99-13.07 46.61-10.94 14.25-18.12 38.01-18.12 64.92v74.51c-26.66-16.27-50.1-35.19-69.16-59.79v-14.72c0-26.91 13.45-50.67 34-64.92 15.3-10.62 24.52-27.98 24.52-46.61v-160.76c0-7.88 6.4-14.27 14.28-14.27z" fill="#66b394"/><path d="m222.464 35.57v42.81h-99.2c-3.98 0-7.21-13.23-7.21-17.22v-18.38c0-3.98 3.23-7.21 7.21-7.21z" fill="#66b394"/><path d="m222.122 62.069h-109.722c-3.984 0-7.214-3.23-7.214-7.214v-18.383c0-3.984 3.23-7.214 7.214-7.214h109.721c3.984 0 7.214 3.23 7.214 7.214v18.383c0 3.984-3.229 7.214-7.213 7.214z" fill="#78c2a4"/><path d="m150.317 62.075h-37.91c-3.99 0-7.22-3.23-7.22-7.22v-18.38c0-3.98 3.23-7.21 7.22-7.21h37.91c-3.99 0-7.22 3.23-7.22 7.21v18.38c0 3.99 3.23 7.22 7.22 7.22z" fill="#66b394"/><path d="m280.99 301.28v185.55h-135.8c-36.05-17.33-67.4-42.85-91.66-74.16v-111.39z" fill="#453d81"/></g><path d="m356.35 410.29v81.29c-5.79 2.47-11.7 4.73-17.7 6.78-4.14 1.41-8.33 2.72-12.57 3.92v-91.99z" fill="#f1f4f6"/><path d="m338.65 410.29v88.07c-4.14 1.41-8.33 2.72-12.57 3.92v-91.99z" fill="#d0e2e7"/><path d="m356.35 410.29v49.26c-4.97.55-10.02.83-15.14.83s-10.16-.28-15.13-.83v-49.26z" fill="#d0e2e7"/><path d="m476.891 313.187c0 74.93-60.74 135.67-135.68 135.67-74.93 0-135.67-60.74-135.67-135.67 0-28.66 8.89-55.25 24.06-77.15h223.24c15.17 21.9 24.05 48.49 24.05 77.15z" fill="#f1f4f6"/><path d="m341.221 448.857c-74.94 0-135.68-60.74-135.68-135.67 0-28.66 8.9-55.25 24.06-77.15h60.35c-6.97 21.9-11.05 48.49-11.05 77.15 0 74.93 27.9 135.67 62.32 135.67z" fill="#d0e2e7"/><path d="m448.84 367.72c-19.94 39.21-60.7 66.14-107.63 66.14-11.1 0-21.86-1.51-32.07-4.33-32.97-9.09-60.33-31.87-75.55-61.81z" fill="#da387d"/><path d="m505.383 236.702c0-5.722-12.423-10.738-31.085-13.555-10.958-1.654-19.549-10.246-21.203-21.203-2.817-18.662-7.833-31.085-13.555-31.085s-10.738 12.423-13.555 31.085c-1.654 10.958-10.246 19.549-21.203 21.203-18.662 2.817-31.085 7.833-31.085 13.555s12.423 10.738 31.085 13.555c10.958 1.654 19.549 10.246 21.203 21.203 2.817 18.662 7.833 31.085 13.555 31.085s10.738-12.423 13.555-31.085c1.654-10.958 10.246-19.549 21.203-21.203 18.662-2.817 31.085-7.833 31.085-13.555z" fill="#fff"/><path d="m309.14 429.53c-32.97-9.09-60.33-31.87-75.55-61.81h50.56c5.2 25.8 13.99 47.4 24.99 61.81z" fill="#d80a61"/></g></svg>